PathFileType	4	(X/Y/Z)	C:\Users\Biomechanik\SynologyDrive\AlexP\Athlete_03\Athlete_3_25_03_31\Squat_bar_01\marker_experimental.trc
DataRate	CameraRate	NumFrames	NumMarkers	Units	OrigDataRate	OrigDataStartFrame	OrigNumFrames
200.000000	200.000000	4	55	mm	200.000000	301	482
Frame#	Time	BL			BR			GLAB			RFHD			LFHD			C7			T6			SPINMOL			SPINM2			SPINM3			T12			BELTOL			BELT2			BELT3			SACROL			SACR2			SACR3			LTHOL			LTH2			LTH3			LSHAOL			LSHA2			LSHA3			LHEE			LTOE			LM5			RTHOL			RTH2			RTH3			RSHAOL			RSHA2			RSHA3			RHEE			RTOE			RM5			STRN			XIPH			LACR			LUAOL			LUA2			LUA3			LLAOL			LLA2			LLA3			LWRR			LWRU			RACR			RUAOL			RUA2			RUA3			RLAOL			RLA2			RLA3			RWRR			RWRU			
		X1	Y1	Z1	X2	Y2	Z2	X3	Y3	Z3	X4	Y4	Z4	X5	Y5	Z5	X6	Y6	Z6	X7	Y7	Z7	X8	Y8	Z8	X9	Y9	Z9	X10	Y10	Z10	X11	Y11	Z11	X12	Y12	Z12	X13	Y13	Z13	X14	Y14	Z14	X15	Y15	Z15	X16	Y16	Z16	X17	Y17	Z17	X18	Y18	Z18	X19	Y19	Z19	X20	Y20	Z20	X21	Y21	Z21	X22	Y22	Z22	X23	Y23	Z23	X24	Y24	Z24	X25	Y25	Z25	X26	Y26	Z26	X27	Y27	Z27	X28	Y28	Z28	X29	Y29	Z29	X30	Y30	Z30	X31	Y31	Z31	X32	Y32	Z32	X33	Y33	Z33	X34	Y34	Z34	X35	Y35	Z35	X36	Y36	Z36	X37	Y37	Z37	X38	Y38	Z38	X39	Y39	Z39	X40	Y40	Z40	X41	Y41	Z41	X42	Y42	Z42	X43	Y43	Z43	X44	Y44	Z44	X45	Y45	Z45	X46	Y46	Z46	X47	Y47	Z47	X48	Y48	Z48	X49	Y49	Z49	X50	Y50	Z50	X51	Y51	Z51	X52	Y52	Z52	X53	Y53	Z53	X54	Y54	Z54	X55	Y55	Z55	

302	1.505	240.5357666015625	761.9752197265626	-2239.0830078125	258.3834838867188	802.2098388671875	-218.5671234130859	540.4585571289062	946.5488281250001	-1186.161376953125	486.2860107421875	969.8150634765626	-1125.123779296875	500.0896911621094	969.4265136718751	-1261.159912109375	302.7835693359375	839.0548095703126	-1199.250732421875	174.5297088623047	732.8840942382814	-1207.892944335938	152.5563812255859	712.1700439453126	-1229.310791015625	142.5637969970703	706.0018920898439	-1180.424438476562	111.508430480957	661.4617919921876	-1218.169067382812	79.53855895996094	618.4949340820314	-1219.091796875	43.9760856628418	611.1878051757814	-1234.46923828125	42.73837280273438	606.9552612304689	-1183.829956054688	7.734649658203125	558.8505249023439	-1215.463012695312	-46.31698989868164	425.4012145996094	-1242.075439453125	-45.70957183837891	423.7539978027344	-1191.199096679688	-48.14275360107422	362.7847290039063	-1217.654418945312	163.3550415039062	347.682586669922	-1508.68505859375	216.516357421875	300.9540405273439	-1542.614624023438	213.5826263427734	350.9963989257814	-1543.639892578125	254.5532989501953	286.5435485839845	-1617.812255859375	192.5283050537109	252.1580963134766	-1580.817504882812	232.7961273193359	230.8311157226563	-1602.370361328125	116.4412612915039	71.58189392089852	-1460.468627929688	316.7781066894531	47.38168334960947	-1538.765625	236.0480804443359	27.98906707763682	-1620.3134765625	136.4541168212891	336.5450744628907	-912.3158569335938	168.1478424072266	402.2314758300782	-878.7310791015625	182.3365020751953	354.6709594726563	-873.9782104492188	218.8097991943359	302.7541809082032	-798.2890014648438	219.0486602783203	223.8827514648438	-800.524169921875	189.7062835693359	255.0536804199219	-825.905517578125	98.00125885009766	66.38142395019537	-971.863037109375	281.4326171875	45.81435775756842	-870.8762817382812	191.4389495849609	39.62403869628911	-800.3697509765625	415.3049011230469	674.3024902343751	-1204.75537109375	369.6404724121094	536.1520996093751	-1200.321533203125	342.1032409667969	786.5053710937501	-1371.101806640625	217.9634094238281	684.6374511718751	-1466.794189453125	163.6163024902344	648.7540283203126	-1457.074096679688	193.9562072753906	629.7167968750001	-1493.298706054688	158.0203704833984	566.7019653320314	-1561.107421875	228.9598083496094	554.6422119140626	-1595.692138671875	205.2082824707031	597.9604492187501	-1585.923095703125	270.7525634765625	671.8031616210939	-1624.626342773438	283.9984436035156	697.8807983398439	-1551.07177734375	351.6084594726562	780.7239990234376	-1040.740112304688	227.6380462646484	684.4337158203126	-950.7626342773438	196.6375274658203	632.6519775390625	-922.9772338867188	174.5205230712891	649.2686767578126	-967.6838989257812	183.4070434570312	565.521728515625	-841.2965698242188	194.7448425292969	643.9468994140625	-830.2808227539062	226.3598937988281	605.1693115234375	-820.0924072265625	269.8811950683594	687.15966796875	-800.96630859375	298.9549560546875	713.9234619140625	-870.4556274414062	
303	1.51	240.648193359375	761.8458862304689	-2239.1142578125	258.245361328125	802.5700073242188	-218.6071319580078	540.3790283203125	946.7326049804689	-1186.101928710938	486.16748046875	969.9746704101564	-1125.079833984375	500.0155944824219	969.5864868164064	-1261.115356445312	302.7882690429688	839.1841430664064	-1199.261474609375	174.5153198242188	733.0928344726564	-1207.933471679688	152.5348358154297	712.3924560546876	-1229.371948242188	142.5403900146484	706.2330322265626	-1180.498291015625	111.4703521728516	661.7023315429689	-1218.22216796875	79.54473876953125	618.7070312500001	-1219.116455078125	43.99177932739258	611.4048461914064	-1234.505981445312	42.73245239257812	607.1804809570314	-1183.890380859375	7.744022846221924	559.0804443359376	-1215.503173828125	-46.35617828369141	425.6154785156251	-1242.1494140625	-45.8258056640625	423.9789428710938	-1191.273315429688	-48.30281066894531	363.0632019042969	-1217.755859375	163.3559112548828	347.7503662109376	-1508.716674804688	216.4803771972656	300.986541748047	-1542.645874023438	213.5906524658203	351.0235290527345	-1543.669921875	254.5166320800781	286.5269165039064	-1617.853271484375	192.5076446533203	252.1500244140626	-1580.848876953125	232.7788543701172	230.8294982910157	-1602.399658203125	116.4338455200195	71.5817413330079	-1460.48486328125	316.764892578125	47.3977813720704	-1538.788818359375	236.0367736816406	27.96493721008311	-1620.336181640625	136.3442687988281	336.6348876953126	-912.3640747070312	168.0243682861328	402.3006591796876	-878.751220703125	182.2199859619141	354.7363891601563	-874.0250854492188	218.6559448242188	302.8015747070313	-798.2760009765625	218.9443969726562	223.9278411865235	-800.5127563476562	189.5805206298828	255.0852661132813	-825.891845703125	97.98628997802734	66.36065673828131	-971.838623046875	281.4264526367188	45.82749938964849	-870.8578491210938	191.4187469482422	39.60849380493169	-800.3470458984375	415.2404174804688	674.3806762695314	-1204.72998046875	369.5330200195312	536.2916870117189	-1200.268188476562	342.1439208984375	786.6091308593751	-1371.112426757812	218.0646209716797	684.7271728515626	-1466.78173828125	163.6957397460938	648.8695678710939	-1457.082641601562	194.0966033935547	629.8118286132814	-1493.287353515625	158.0881805419922	566.8055419921876	-1561.123901367188	229.0395660400391	554.7254028320314	-1595.689208984375	205.2862701416016	598.0512084960939	-1585.93017578125	270.8259582519531	671.8862304687501	-1624.63232421875	284.0581359863281	697.9790649414064	-1551.08154296875	351.5865783691406	780.8831787109376	-1040.740844726562	227.5932006835938	684.6334838867189	-950.7861328125	196.5608825683594	632.8858032226562	-922.9729614257812	174.4554138183594	649.4947509765626	-967.6825561523438	183.2859497070312	565.778564453125	-841.288818359375	194.6515502929688	644.20166015625	-830.2902221679688	226.2536010742188	605.4182739257812	-820.0892333984375	269.7976379394531	687.4032592773438	-800.9780883789062	298.8421325683594	714.1453247070312	-870.4925537109375	
304	1.515	240.7651977539062	761.7871093750001	-2239.145263671875	258.1096496582031	802.9979858398438	-218.6458129882812	540.3126220703125	946.9782714843751	-1186.047729492188	486.0630493164062	970.1989135742189	-1125.04052734375	499.9544067382812	969.8079223632814	-1261.077270507812	302.8015747070312	839.3813476562501	-1199.272094726562	174.5067749023438	733.3727416992189	-1207.9736328125	152.5195617675781	712.6892700195314	-1229.4326171875	142.5224456787109	706.5393676757814	-1180.572387695312	111.434928894043	662.0201416015626	-1218.272583007812	79.56594085693359	618.9986572265626	-1219.135375976562	44.0270881652832	611.7014160156251	-1234.536376953125	42.74354553222656	607.4851684570314	-1183.946166992188	7.765331745147705	559.3915405273439	-1215.537231445312	-46.40839004516602	425.9251708984376	-1242.220092773438	-45.95921325683594	424.2971191406251	-1191.340087890625	-48.48940658569336	363.4397888183594	-1217.85498046875	163.3370361328125	347.8583984375001	-1508.749145507812	216.4254608154297	301.0438232421876	-1542.668334960938	213.5797424316406	351.0790100097657	-1543.697143554688	254.4556274414062	286.5177612304689	-1617.896606445312	192.4673156738281	252.1458587646485	-1580.882202148438	232.7445526123047	230.8357391357423	-1602.429565429688	116.4221801757812	71.5802536010743	-1460.506225585938	316.7490539550781	47.41802597045908	-1538.816284179688	236.0239410400391	27.93691062927256	-1620.362426757812	136.2127380371094	336.7641296386719	-912.4100341796875	167.8888244628906	402.3996887207032	-878.7586669921875	182.0873107910156	354.8294982910157	-874.070556640625	218.4862213134766	302.8520507812501	-798.256591796875	218.8276519775391	223.9759674072266	-800.498046875	189.4386291503906	255.1192932128907	-825.8709106445312	97.96533966064453	66.33939361572271	-971.8085327148438	281.4190673828125	45.84246444702154	-870.8372192382812	191.3956756591797	39.5900268554688	-800.3200073242188	415.1723327636719	674.5183105468751	-1204.705810546875	369.4085693359375	536.4801635742189	-1200.219970703125	342.1906433105469	786.7803955078126	-1371.123168945312	218.1617889404297	684.8908691406251	-1466.770263671875	163.7744598388672	649.0590209960939	-1457.09228515625	194.2345275878906	629.9830322265626	-1493.274291992188	158.1521148681641	566.9884033203126	-1561.139770507812	229.1143188476562	554.8829345703126	-1595.68896484375	205.3605651855469	598.2183837890626	-1585.9375	270.9019470214844	672.0413208007814	-1624.635864257812	284.1192016601562	698.1492309570314	-1551.090942382812	351.5714111328125	781.1127319335939	-1040.74267578125	227.5515594482422	684.9041748046876	-950.8136596679688	196.4838104248047	633.1937255859375	-922.9697265625	174.3908843994141	649.7943115234376	-967.6829223632812	183.1591949462891	566.1091918945312	-841.2802124023438	194.5572662353516	644.532470703125	-830.29931640625	226.1448974609375	605.739990234375	-820.0848999023438	269.7131958007812	687.7178344726562	-800.98974609375	298.72265625	714.4395141601562	-870.5323486328125	
305	1.52	240.8874664306641	761.8016967773439	-2239.17578125	257.9768371582031	803.4961547851562	-218.6832275390624	540.2605590820312	947.2873535156251	-1185.999145507812	485.9744873046875	970.4891967773439	-1125.00634765625	499.9074401855469	970.0924682617189	-1261.04638671875	302.8240051269531	839.6488037109376	-1199.282836914062	174.5041198730469	733.7253417968751	-1208.013549804688	152.5113067626953	713.0620117187501	-1229.492919921875	142.5111846923828	706.9222412109376	-1180.64501953125	111.4026184082031	662.4169921875001	-1218.320068359375	79.60334777832031	619.3715820312501	-1219.148681640625	44.08316802978516	612.0796508789064	-1234.560180664062	42.77261352539062	607.8711547851564	-1183.995483398438	7.799258232116699	559.7862548828126	-1215.564697265625	-46.47504806518555	426.3348693847657	-1242.287353515625	-46.10916519165039	424.7134094238282	-1191.399047851562	-48.70155715942383	363.9173889160157	-1217.950439453125	163.2975616455078	348.0086059570314	-1508.781005859375	216.3495483398438	301.1285705566407	-1542.679931640625	213.5496368408203	351.1644287109376	-1543.719360351562	254.370849609375	286.5176086425782	-1617.93994140625	192.4073028564453	252.1460418701173	-1580.916137695312	232.6933288574219	230.8504486083985	-1602.458374023438	116.4061126708984	71.5772018432618	-1460.53271484375	316.7304077148438	47.44267654418955	-1538.848266601562	236.0095825195312	27.90504646301279	-1620.392211914062	136.0583953857422	336.9345703125001	-912.4542236328125	167.7416381835938	402.5302124023438	-878.7537841796875	181.9383544921875	354.9521179199219	-874.1151733398438	218.3015747070312	302.9058227539063	-798.2318725585938	218.6992340087891	224.0275573730469	-800.4813232421875	189.2812042236328	255.1559295654297	-825.843505859375	97.93813323974609	66.31760406494146	-971.7727661132812	281.4102783203125	45.85943984985357	-870.8142700195312	191.3697814941406	39.56861877441411	-800.28857421875	415.1005554199219	674.7174072265626	-1204.683227539062	369.2676696777344	536.7209472656251	-1200.176513671875	342.24365234375	787.0213012695314	-1371.13427734375	218.2550201416016	685.1311645507814	-1466.760131835938	163.8506164550781	649.3263549804689	-1457.104248046875	194.3686218261719	630.2332763671876	-1493.2607421875	158.2113647460938	567.2528686523439	-1561.155639648438	229.1826477050781	555.1171264648439	-1595.691284179688	205.430419921875	598.4642944335939	-1585.945678710938	270.9801940917969	672.2705078125001	-1624.636840820312	284.1813659667969	698.3931884765626	-1551.100219726562	351.5634460449219	781.4143066406251	-1040.74560546875	227.5126037597656	685.2477416992189	-950.8448486328125	196.4054260253906	633.5777587890625	-922.967529296875	174.3263244628906	650.1699218750001	-967.6854858398438	183.0260009765625	566.5159301757812	-841.2709350585938	194.4612121582031	644.94140625	-830.30810546875	226.0328369140625	606.1363525390625	-820.0795288085938	269.6268615722656	688.10498046875	-801.0015258789062	298.5965576171875	714.8076782226562	-870.5748291015625	
